# Blender 4.2.2 LTS
# www.blender.org
o clip.002
v 1.500000 -0.500000 0.100000
v 1.900000 -0.200000 0.100000
v 1.700000 -0.500000 0.100000
v 1.900000 -0.300000 0.100000
v 1.900000 0.000000 0.100000
v 2.200000 0.100000 0.100000
v 2.200000 0.200000 0.100000
v 1.700000 0.300000 0.100000
v 1.600000 0.100000 0.100000
v 1.800000 -0.100000 0.100000
v 1.800000 -0.300000 0.100000
v 1.700000 -0.400000 0.100000
s 0
f 3 12 1
f 4 11 12 3
f 2 10 11 4
f 2 5 10
f 6 7 8 5
f 9 10 5 8
o clip.001
v 1.500000 -0.500000 0.100000
v 1.900000 -0.200000 0.100000
v 1.700000 -0.500000 0.100000
v 1.900000 -0.300000 0.100000
v 1.900000 0.000000 0.100000
v 2.200000 0.100000 0.100000
v 2.200000 0.200000 0.100000
v 1.700000 0.300000 0.100000
v 1.600000 0.100000 0.100000
v 1.800000 -0.100000 0.100000
v 1.800000 -0.300000 0.100000
v 1.700000 -0.400000 0.100000
s 0
f 15 24 13
f 16 23 24 15
f 14 22 23 16
f 14 17 22
f 18 19 20 17
f 21 22 17 20
o clip
v 2.057925 1.717895 -0.120545
v 2.080982 1.682044 -0.236458
v 2.102231 1.623826 -0.343284
v 2.120856 1.545477 -0.436917
v 2.136141 1.450009 -0.513761
v 2.147499 1.341091 -0.570860
v 2.154493 1.222907 -0.606022
v 2.156854 1.100000 -0.617895
v 2.154493 0.977093 -0.606022
v 2.147499 0.858910 -0.570860
v 2.136141 0.749991 -0.513761
v 2.120856 0.654523 -0.436917
v 2.102231 0.576174 -0.343284
v 2.080982 0.517956 -0.236458
v 2.057925 0.482105 -0.120545
v 2.080982 1.717895 -0.113551
v 2.126209 1.682044 -0.222739
v 2.167890 1.623826 -0.323366
v 2.204424 1.545477 -0.411567
v 2.234407 1.450009 -0.483952
v 2.256686 1.341091 -0.537739
v 2.270406 1.222907 -0.570860
v 2.275038 1.100000 -0.582044
v 2.270406 0.977093 -0.570860
v 2.256686 0.858910 -0.537739
v 2.234407 0.749991 -0.483952
v 2.204424 0.654523 -0.411567
v 2.167890 0.576174 -0.323366
v 2.126209 0.517956 -0.222738
v 2.080982 0.482105 -0.113551
v 2.102231 1.717895 -0.102193
v 2.167890 1.682044 -0.200459
v 2.228402 1.623826 -0.291022
v 2.281441 1.545477 -0.370401
v 2.324970 1.450009 -0.435545
v 2.357314 1.341091 -0.483952
v 2.377231 1.222907 -0.513761
v 2.383957 1.100000 -0.523826
v 2.377231 0.977093 -0.513761
v 2.357314 0.858910 -0.483952
v 2.324970 0.749991 -0.435545
v 2.281441 0.654523 -0.370401
v 2.228402 0.576174 -0.291022
v 2.167890 0.517956 -0.200459
v 2.102231 0.482105 -0.102193
v 2.120856 1.717895 -0.086908
v 2.204424 1.682044 -0.170477
v 2.281441 1.623826 -0.247494
v 2.348947 1.545477 -0.315000
v 2.404348 1.450009 -0.370401
v 2.445515 1.341091 -0.411567
v 2.470865 1.222907 -0.436917
v 2.479425 1.100000 -0.445477
v 2.470865 0.977093 -0.436917
v 2.445515 0.858910 -0.411567
v 2.404348 0.749991 -0.370401
v 2.348948 0.654523 -0.315000
v 2.281441 0.576174 -0.247494
v 2.204424 0.517956 -0.170477
v 2.120856 0.482105 -0.086908
v 2.136141 1.717895 -0.068283
v 2.234407 1.682044 -0.133943
v 2.324970 1.623826 -0.194455
v 2.404348 1.545477 -0.247494
v 2.469493 1.450009 -0.291022
v 2.517900 1.341091 -0.323366
v 2.547708 1.222907 -0.343284
v 2.557773 1.100000 -0.350009
v 2.547708 0.977093 -0.343284
v 2.517900 0.858910 -0.323366
v 2.469493 0.749991 -0.291022
v 2.404348 0.654523 -0.247494
v 2.324970 0.576174 -0.194455
v 2.234407 0.517956 -0.133943
v 2.136141 0.482105 -0.068283
v 2.033947 0.470000 0.000000
v 2.147499 1.717895 -0.047034
v 2.256686 1.682044 -0.092261
v 2.357314 1.623826 -0.133943
v 2.517900 1.450009 -0.200459
v 2.571686 1.341091 -0.222738
v 2.604808 1.222907 -0.236458
v 2.615992 1.100000 -0.241090
v 2.604808 0.977093 -0.236458
v 2.571686 0.858910 -0.222738
v 2.517900 0.749991 -0.200459
v 2.445515 0.654523 -0.170477
v 2.357314 0.576174 -0.133943
v 2.256686 0.517956 -0.092261
v 2.147499 0.482105 -0.047034
v 2.147499 1.717895 0.047035
v 2.256686 1.682044 0.092262
v 2.357314 1.623826 0.133943
v 2.517899 1.450009 0.200460
v 2.571686 1.341091 0.222739
v 2.604808 1.222907 0.236458
v 2.615992 1.100000 0.241091
v 2.604808 0.977093 0.236458
v 2.571686 0.858910 0.222739
v 2.517899 0.749991 0.200460
v 2.445515 0.654523 0.170477
v 2.357314 0.576174 0.133943
v 2.256686 0.517956 0.092262
v 2.147499 0.482105 0.047035
v 2.136141 1.717895 0.068284
v 2.234407 1.682044 0.133943
v 2.324970 1.623826 0.194455
v 2.404348 1.545477 0.247494
v 2.469493 1.450009 0.291022
v 2.517900 1.341091 0.323366
v 2.547708 1.222907 0.343284
v 2.557773 1.100000 0.350010
v 2.547708 0.977093 0.343284
v 2.517900 0.858910 0.323366
v 2.469493 0.749991 0.291022
v 2.404348 0.654523 0.247494
v 2.324969 0.576174 0.194455
v 2.234407 0.517956 0.133943
v 2.136141 0.482105 0.068284
v 2.120856 1.717895 0.086909
v 2.204424 1.682044 0.170477
v 2.281441 1.623826 0.247494
v 2.348948 1.545477 0.315000
v 2.404348 1.450009 0.370401
v 2.445515 1.341091 0.411568
v 2.470865 1.222907 0.436918
v 2.479425 1.100000 0.445477
v 2.470865 0.977093 0.436918
v 2.445515 0.858910 0.411568
v 2.404348 0.749991 0.370401
v 2.348948 0.654523 0.315000
v 2.281441 0.576174 0.247494
v 2.204424 0.517956 0.170477
v 2.120856 0.482105 0.086909
v 2.102231 1.717895 0.102194
v 2.167890 1.682044 0.200460
v 2.228402 1.623826 0.291022
v 2.281441 1.545477 0.370401
v 2.324970 1.450009 0.435545
v 2.357314 1.341091 0.483952
v 2.377231 1.222907 0.513761
v 2.383957 1.100000 0.523826
v 2.377231 0.977093 0.513761
v 2.357314 0.858910 0.483952
v 2.324969 0.749991 0.435545
v 2.281441 0.654523 0.370401
v 2.228402 0.576174 0.291022
v 2.167890 0.517956 0.200460
v 2.102231 0.482105 0.102194
v 2.080982 1.717895 0.113551
v 2.126209 1.682044 0.222739
v 2.167890 1.623826 0.323367
v 2.204424 1.545477 0.411568
v 2.234407 1.450009 0.483952
v 2.256686 1.341091 0.537739
v 2.270406 1.222907 0.570860
v 2.275038 1.100000 0.582044
v 2.270405 0.977093 0.570860
v 2.256686 0.858910 0.537739
v 2.234407 0.749991 0.483952
v 2.204424 0.654523 0.411568
v 2.167890 0.576174 0.323366
v 2.126209 0.517956 0.222739
v 2.080982 0.482105 0.113551
v 2.057925 1.717895 0.120546
v 2.080982 1.682044 0.236458
v 2.102231 1.623826 0.343284
v 2.120856 1.545477 0.436918
v 2.136141 1.450009 0.513761
v 2.147499 1.341091 0.570860
v 2.154493 1.222907 0.606022
v 2.156854 1.100000 0.617895
v 2.154492 0.977093 0.606022
v 2.147499 0.858910 0.570860
v 2.136141 0.749991 0.513761
v 2.120856 0.654523 0.436918
v 2.102231 0.576174 0.343284
v 2.080982 0.517956 0.236458
v 2.057925 0.482105 0.120545
v 2.033947 1.717895 0.122907
v 2.033947 1.682044 0.241091
v 2.033947 1.623826 0.350010
v 2.033947 1.545477 0.445478
v 2.033947 1.450009 0.523826
v 2.033947 1.341091 0.582044
v 2.033947 1.222907 0.617895
v 2.033947 1.100000 0.630000
v 2.033947 0.977093 0.617895
v 2.033947 0.858910 0.582044
v 2.033947 0.749991 0.523826
v 2.033947 0.654523 0.445478
v 2.033947 0.576174 0.350009
v 2.033947 0.517956 0.241091
v 2.033947 0.482105 0.122907
v 2.033947 1.730000 0.000000
v 2.033947 1.717895 -0.122907
v 2.033947 1.682044 -0.241090
v 2.033947 1.623826 -0.350009
v 2.033947 1.545477 -0.445477
v 2.033947 1.450009 -0.523825
v 2.033947 1.341091 -0.582044
v 2.033947 1.222907 -0.617894
v 2.033947 1.100000 -0.629999
v 2.033947 0.977093 -0.617894
v 2.033947 0.858910 -0.582044
v 2.033948 0.749991 -0.523825
v 2.033947 0.654523 -0.445477
v 2.033948 0.576174 -0.350009
v 2.033948 0.517956 -0.241090
v 2.033947 0.482105 -0.122907
v 2.030000 1.100000 -0.630000
v 0.770000 1.100000 -0.630000
v 2.030000 1.222907 -0.617895
v 0.770000 1.222907 -0.617895
v 2.030000 1.341091 -0.582044
v 0.770000 1.341091 -0.582044
v 2.030000 1.450009 -0.523826
v 0.770000 1.450009 -0.523826
v 2.030001 1.545477 -0.445477
v 0.770000 1.545478 -0.445477
v 2.030001 1.623826 -0.350009
v 0.770000 1.623826 -0.350009
v 2.030001 1.682044 -0.241091
v 0.770000 1.682044 -0.241091
v 2.030000 1.717895 -0.122907
v 0.770000 1.717895 -0.122907
v 2.030000 1.730000 -0.000000
v 0.770000 1.730000 -0.000000
v 2.030000 1.717895 0.122907
v 0.770000 1.717895 0.122907
v 2.030000 1.682044 0.241091
v 0.770000 1.682044 0.241090
v 2.030000 1.623826 0.350009
v 0.770000 1.623826 0.350009
v 2.030000 1.545477 0.445477
v 0.770000 1.545478 0.445477
v 2.030000 1.450009 0.523826
v 0.770000 1.450009 0.523826
v 2.030000 1.341090 0.582044
v 0.770000 1.341091 0.582044
v 2.030000 1.222907 0.617895
v 0.770000 1.222907 0.617895
v 2.030000 1.100000 0.630000
v 0.770000 1.100000 0.630000
v 2.030000 0.977093 0.617895
v 0.770000 0.977093 0.617895
v 2.030000 0.858909 0.582044
v 0.770000 0.858909 0.582044
v 2.030000 0.749990 0.523826
v 0.770000 0.749991 0.523826
v 2.030000 0.654522 0.445477
v 0.770000 0.654523 0.445477
v 2.030000 0.576174 0.350009
v 0.770000 0.576174 0.350009
v 2.030000 0.517956 0.241090
v 0.770000 0.517956 0.241090
v 2.030000 0.482105 0.122906
v 0.770000 0.482105 0.122906
v 2.030000 0.470000 -0.000001
v 0.770000 0.470000 -0.000001
v 2.030000 0.482105 -0.122908
v 0.770000 0.482106 -0.122908
v 2.030000 0.517956 -0.241091
v 0.770000 0.517956 -0.241091
v 2.030000 0.576174 -0.350010
v 0.770000 0.576175 -0.350010
v 2.030000 0.654523 -0.445478
v 0.770000 0.654523 -0.445478
v 2.030000 0.749991 -0.523826
v 0.770000 0.749992 -0.523826
v 2.030000 0.858910 -0.582045
v 0.770000 0.858910 -0.582045
v 2.030000 0.977094 -0.617895
v 0.770000 0.977094 -0.617895
v 3.217540 1.424212 0.100000
v 3.070899 1.406987 0.100000
v 3.217540 1.424212 -0.100000
v 3.070900 1.406987 -0.100000
v 3.310119 1.379167 0.100000
v 3.310119 1.379167 -0.100000
v 3.342061 1.438156 0.100000
v 3.342061 1.438156 -0.100000
v 3.227363 1.479921 0.100000
v 3.227363 1.479921 -0.100000
v 3.088914 1.468432 0.100000
v 3.088914 1.468432 -0.100000
v 2.962761 1.404515 0.100000
v 2.962761 1.404515 -0.100000
v 2.915261 1.298008 0.100000
v 2.915261 1.298008 -0.100000
v 2.852201 1.143984 0.100000
v 2.852201 1.143984 -0.100000
v 2.544994 1.111991 0.100000
v 2.544994 1.111991 -0.100000
v 2.586725 1.470820 0.100000
v 2.586725 1.470820 -0.100000
v 2.612931 1.538001 0.100000
v 2.612931 1.538001 -0.100000
v 2.481849 1.568294 0.100000
v 2.481849 1.568294 -0.100000
v 2.495760 1.687904 0.100000
v 2.495760 1.687904 -0.100000
v 2.734979 1.660083 0.100000
v 2.734979 1.660083 -0.100000
v 2.721069 1.540474 0.100000
v 2.721069 1.540474 -0.100000
v 2.733365 1.488044 0.100000
v 2.733365 1.488045 -0.100000
v 2.827593 1.370907 0.100000
v 2.827593 1.370907 -0.100000
v 2.913612 1.370100 0.100000
v 2.913612 1.370100 -0.100000
v 1.500000 -0.500000 0.100000
v 1.900000 -0.200000 0.100000
v 1.500000 -0.500000 -0.100000
v 1.900000 -0.200000 -0.100000
v 1.700000 -0.500000 0.100000
v 1.900000 -0.300000 0.100000
v 1.700000 -0.500000 -0.100000
v 1.900000 -0.300000 -0.100000
v 1.900000 0.000000 0.100000
v 1.900000 0.000000 -0.100000
v 2.200000 0.100000 0.100000
v 2.200000 0.100000 -0.100000
v 2.200000 0.200000 0.100000
v 2.200000 0.200000 -0.100000
v 1.700000 0.300000 0.100000
v 1.700000 0.300000 -0.100000
v 1.600000 0.100000 0.100000
v 1.600000 0.100000 -0.100000
v 1.800000 -0.100000 0.100000
v 1.800000 -0.100000 -0.100000
v 1.800000 -0.300000 0.100000
v 1.800000 -0.300000 -0.100000
v 1.700000 -0.400000 0.100000
v 1.700000 -0.400000 -0.100000
v 2.633785 0.300000 0.300000
v 2.133785 0.457918 0.300000
v 2.633785 0.300000 -0.300000
v 2.133785 0.457918 -0.300000
v 3.022020 0.709167 0.300000
v 3.500000 0.875891 0.300000
v 3.022020 0.709167 -0.300000
v 3.500000 0.875891 -0.300000
v 2.470000 -0.324109 -0.300000
v 2.470000 -0.324109 0.300000
v 3.000000 1.075891 0.300000
v 3.000000 1.075891 -0.300000
v 2.700000 1.275891 0.300000
v 2.700000 1.275891 -0.300000
v 2.400000 1.575891 0.300000
v 2.400000 1.575891 -0.300000
v 2.300000 1.775891 0.300000
v 2.300000 1.775891 -0.300000
v 2.400000 1.875891 0.300000
v 2.400000 1.875891 -0.300000
v 2.299999 1.975891 0.300000
v 2.300000 1.975891 -0.300000
v 2.200000 1.875891 0.300000
v 2.200000 1.875891 -0.300000
v 2.033916 1.805891 0.200000
v 2.033916 1.805891 -0.200000
v 0.761785 1.805891 0.200000
v 0.761785 1.805891 -0.200000
v 0.300000 1.300000 0.210000
v 0.300000 1.300000 -0.210000
v 0.300000 0.800000 0.130000
v 0.300000 0.800000 -0.130000
v 0.400000 0.575891 0.100000
v 0.400000 0.575891 -0.100000
v 0.600000 0.375891 0.100000
v 0.600000 0.375891 -0.100000
v 0.800000 0.175891 0.100000
v 0.800000 0.175891 -0.100000
v 1.020000 0.075891 0.100000
v 1.020000 0.075891 -0.100000
v 1.200000 0.075891 0.100000
v 1.200000 0.075891 -0.100000
v 1.300000 0.175891 0.200000
v 1.300000 0.175891 -0.200000
v 1.500000 0.275891 0.200000
v 1.500000 0.275891 -0.200000
v 1.800000 0.275891 0.200000
v 1.800000 0.275891 -0.200000
v 2.100000 0.175891 0.200000
v 2.100000 0.175891 -0.200000
v 2.300000 -0.024109 0.200000
v 2.300000 -0.024109 -0.200000
v 2.300000 -0.324109 0.100000
v 2.300000 -0.324109 -0.100000
v 2.333785 0.957918 0.300000
v 2.333785 0.957918 -0.300000
v 2.333785 1.157918 0.300000
v 2.333785 1.157918 -0.300000
v 2.133785 1.657918 0.300000
v 2.133785 1.657918 -0.300000
v 2.033785 1.729740 0.300000
v 2.033785 1.729740 -0.300000
v 2.033785 0.457918 0.300000
v 2.033785 0.457918 -0.300000
v 0.761469 1.729740 0.300000
v 0.761470 1.729740 -0.300000
v 0.763066 0.457918 0.300000
v 0.763066 0.457918 -0.300000
v 0.762268 1.093829 0.300000
v 0.762268 1.093829 -0.300000
v 0.974852 0.457918 0.300000
v 1.186639 0.457918 0.300000
v 1.398425 0.457918 0.300000
v 1.610212 0.457918 0.300000
v 1.821999 0.457918 0.300000
v 1.821999 0.457918 -0.300000
v 1.610212 0.457918 -0.300000
v 1.398425 0.457918 -0.300000
v 1.186639 0.457918 -0.300000
v 0.974852 0.457918 -0.300000
v 2.033785 1.305799 -0.300000
v 2.033785 0.881858 -0.300000
v 2.033785 0.881859 0.300000
v 2.033785 1.305799 0.300000
v 0.301000 1.542892 -0.251285
v -4.801000 1.542892 -0.231000
v 0.201000 1.587958 -0.226562
v -4.801000 1.587958 -0.226562
v 0.201000 1.631292 -0.213416
v -4.801000 1.631292 -0.213416
v 0.201000 1.671229 -0.192070
v -4.801000 1.671229 -0.192070
v 0.201000 1.706234 -0.163342
v -4.801000 1.706234 -0.163342
v 0.201000 1.734962 -0.128337
v -4.801000 1.734962 -0.128337
v 0.201000 1.756308 -0.088400
v -4.801000 1.756308 -0.088400
v 0.201000 1.769453 -0.045066
v -4.801000 1.769454 -0.045066
v 0.201000 1.773892 -0.000000
v -4.801000 1.773892 -0.000000
v 0.201000 1.769453 0.045066
v -4.801000 1.769454 0.045066
v 0.201000 1.756308 0.088400
v -4.801000 1.756308 0.088400
v 0.201000 1.734961 0.128337
v -4.801000 1.734962 0.128336
v 0.201000 1.706234 0.163341
v -4.801000 1.706234 0.163341
v 0.201000 1.671229 0.192069
v -4.801000 1.671229 0.192069
v 0.201000 1.631292 0.213416
v -4.801000 1.631292 0.213416
v 0.201000 1.587958 0.226561
v -4.801000 1.587958 0.226561
v 0.301000 1.542892 0.251285
v -4.801000 1.542892 0.231000
v -4.801000 1.497826 0.226561
v -4.801000 1.454492 0.213416
v -4.801000 1.414555 0.192069
v -4.801000 1.379550 0.163341
v -4.801000 1.350823 0.128336
v -4.801000 1.329476 0.088399
v -4.801000 1.316331 0.045065
v -4.801000 1.311892 -0.000001
v -4.801000 1.316331 -0.045066
v -4.801000 1.329476 -0.088400
v -4.801000 1.350823 -0.128337
v -4.801000 1.379551 -0.163342
v -4.801000 1.414556 -0.192070
v -4.801000 1.454493 -0.213417
v -4.801000 1.497827 -0.226562
v 0.301000 1.591915 -0.246457
v 0.301000 1.639055 -0.232157
v 0.301000 1.682498 -0.208936
v 0.301000 1.720577 -0.177685
v 0.301000 1.751828 -0.139607
v 0.301000 1.775049 -0.096163
v 0.301000 1.789349 -0.049023
v 0.301000 1.794177 -0.000000
v 0.301000 1.789349 0.049023
v 0.301000 1.775049 0.096162
v 0.301000 1.751828 0.139606
v 0.301000 1.720577 0.177685
v 0.301000 1.682498 0.208936
v 0.301000 1.639054 0.232157
v 0.301000 1.591915 0.246456
v 0.200000 0.800000 0.130000
v -4.801000 1.569932 -0.135937
v -4.801000 1.542892 -0.138600
v -4.801000 1.595932 -0.128050
v -4.801000 1.619894 -0.115242
v -4.801000 1.640897 -0.098005
v -4.801000 1.658134 -0.077002
v -4.801000 1.670942 -0.053040
v -4.801000 1.678829 -0.027040
v -4.801000 1.681492 -0.000000
v -4.801000 1.678829 0.027039
v -4.801000 1.670942 0.053040
v -4.801000 1.658134 0.077002
v -4.801000 1.640897 0.098005
v -4.801000 1.619894 0.115241
v -4.801000 1.595932 0.128049
v -4.801000 1.569932 0.135937
v -4.801000 1.542892 0.138600
v -4.801000 1.515853 0.135937
v -4.801000 1.489852 0.128049
v -4.801000 1.465890 0.115241
v -4.801000 1.444887 0.098005
v -4.801000 1.427650 0.077002
v -4.801000 1.414842 0.053040
v -4.801000 1.406955 0.027039
v -4.801000 1.404292 -0.000000
v -4.801000 1.406955 -0.027040
v -4.801000 1.414842 -0.053040
v -4.801000 1.427651 -0.077003
v -4.801000 1.444887 -0.098005
v -4.801000 1.465890 -0.115242
v -4.801000 1.489853 -0.128050
v -4.801000 1.515853 -0.135937
v -3.800600 1.542892 -0.231000
v -3.800600 1.587958 -0.226562
v -3.800600 1.631292 -0.213416
v -3.800600 1.671229 -0.192070
v -3.800600 1.706234 -0.163342
v -3.800600 1.734962 -0.128337
v -3.800600 1.756308 -0.088400
v -3.800600 1.769454 -0.045066
v -3.800600 1.773892 -0.000000
v -3.800600 1.769454 0.045066
v -3.800600 1.756308 0.088400
v -3.800600 1.734962 0.128336
v -3.800600 1.706234 0.163341
v -3.800600 1.671229 0.192069
v -3.800600 1.631292 0.213416
v -3.800600 1.587958 0.226561
v -3.800600 1.542892 0.231000
v -3.800600 1.497826 0.226561
v -3.800600 1.454492 0.213416
v -3.800600 1.414555 0.192069
v -3.800600 1.379550 0.163341
v -3.800600 1.350822 0.128336
v -3.800600 1.329476 0.088399
v -3.800600 1.316331 0.045065
v -3.800600 1.311892 -0.000001
v -3.800600 1.316331 -0.045066
v -3.800600 1.329476 -0.088400
v -3.800600 1.350823 -0.128337
v -3.800600 1.379551 -0.163342
v -3.800600 1.414556 -0.192070
v -3.800600 1.454493 -0.213417
v -3.800600 1.497827 -0.226562
v -4.700960 1.542892 -0.231000
v -4.700960 1.587958 -0.226562
v -4.700960 1.631292 -0.213416
v -4.700960 1.671229 -0.192070
v -4.700960 1.706234 -0.163342
v -4.700960 1.734962 -0.128337
v -4.700960 1.756308 -0.088400
v -4.700960 1.769454 -0.045066
v -4.700960 1.773892 -0.000000
v -4.700960 1.769454 0.045066
v -4.700960 1.756308 0.088400
v -4.700960 1.734962 0.128336
v -4.700960 1.706234 0.163341
v -4.700960 1.671229 0.192069
v -4.700960 1.631292 0.213416
v -4.700960 1.587958 0.226561
v -4.700960 1.542892 0.231000
v -4.700960 1.497826 0.226561
v -4.700960 1.454492 0.213416
v -4.700960 1.414555 0.192069
v -4.700960 1.379550 0.163341
v -4.700960 1.350823 0.128336
v -4.700960 1.329476 0.088399
v -4.700960 1.316331 0.045065
v -4.700960 1.311892 -0.000001
v -4.700960 1.316331 -0.045066
v -4.700960 1.329476 -0.088400
v -4.700960 1.350823 -0.128337
v -4.700960 1.379551 -0.163342
v -4.700960 1.414556 -0.192070
v -4.700960 1.454493 -0.213417
v -4.700960 1.497827 -0.226562
v -4.650959 1.922023 -0.088400
v -4.650959 1.922023 0.088400
v -4.500599 2.022023 -0.088400
v -4.500599 2.022023 0.088400
v -4.500599 2.022011 -0.000000
v -4.500599 2.022023 -0.045066
v -4.500599 2.022023 0.045066
v -4.650959 1.922133 0.045066
v -4.650959 1.922014 -0.000000
v -4.650959 1.922030 -0.045066
v 3.700000 0.375891 0.300000
v 3.700000 0.375891 -0.300000
v 4.200000 -0.324109 0.300000
v 4.200000 -0.324109 -0.300000
v 4.500000 -0.924109 0.300000
v 4.500000 -0.924109 -0.300000
v 4.700000 -2.024109 0.300000
v 4.700000 -2.024109 -0.300000
v 3.400000 -2.024109 0.300000
v 3.400000 -2.024109 -0.300000
v 3.300000 -1.424109 0.300000
v 3.300000 -1.424109 -0.300000
v 3.200000 -0.824109 0.300000
v 3.200000 -0.824109 -0.300000
v 2.900000 -0.424109 0.300000
v 2.900000 -0.424109 -0.300000
v 2.700000 -0.324109 0.300000
v 2.700000 -0.324109 -0.300000
v 3.650000 -0.574109 -0.500000
v 3.561882 -1.314991 0.387294
v 3.300000 -1.124109 0.300000
v 3.250000 -1.724109 0.300000
v 3.300000 -1.124109 -0.300000
v 3.250000 -1.724109 -0.300000
v 4.350000 -0.624109 0.300000
v 4.650000 -1.474109 0.300000
v 4.350000 -0.624109 -0.300000
v 4.650000 -1.474109 -0.300000
v 3.300000 -0.024109 -0.500000
v 3.775000 -0.874109 0.500000
v 3.300000 -0.024109 0.500000
v 3.775000 -0.874109 -0.500000
v 3.561882 -1.314991 -0.387294
v 3.900000 -1.174109 0.500000
v 3.396412 -0.714991 0.400000
v 3.900000 -1.174109 -0.500000
v 3.549176 -2.024109 0.387294
v 3.650000 -0.574109 0.500000
v 4.000000 -2.024109 0.500000
v 3.950000 -1.599109 -0.500000
v 4.000000 -2.024109 -0.500000
v 3.950000 -1.599109 0.500000
v -1.300000 1.300000 -0.210000
v -1.100000 0.800000 -0.130000
v -1.300000 1.300000 0.210000
v -1.100000 0.800000 0.130000
v -1.295420 1.587958 -0.226562
v -1.295420 1.631292 -0.213416
v -1.295420 1.671229 -0.192070
v -1.295420 1.706234 -0.163342
v -1.295420 1.734962 -0.128337
v -1.295420 1.756308 -0.088400
v -1.295420 1.769453 -0.045066
v -1.295420 1.773892 -0.000000
v -1.295420 1.769453 0.045066
v -1.295420 1.756308 0.088400
v -1.295420 1.734961 0.128337
v -1.295420 1.706234 0.163341
v -1.295420 1.671229 0.192069
v -1.295420 1.631292 0.213416
v -1.295420 1.587958 0.226561
v -1.295420 1.542892 0.231000
v -1.295420 1.497826 0.226561
v -1.295420 1.454492 0.213416
v -1.295420 1.414555 0.192069
v -1.295420 1.379550 0.163341
v -1.295420 1.350822 0.128336
v -1.295420 1.329476 0.088399
v -1.295420 1.316331 0.045065
v -1.295420 1.311892 -0.000000
v -1.295420 1.316331 -0.045066
v -1.295420 1.329476 -0.088400
v -1.295420 1.350823 -0.128337
v -1.295420 1.379551 -0.163342
v -1.295420 1.414556 -0.192070
v -1.295420 1.454492 -0.213417
v -1.295420 1.497826 -0.226562
v -1.295420 1.542892 -0.231000
v 2.300000 1.775891 -0.096667
v 2.300000 1.775891 0.096667
v 2.300000 1.975891 -0.096667
v 2.400000 1.875891 0.096667
v 2.300000 1.975891 0.096667
v 2.200000 1.875891 -0.096667
v 2.200000 1.875891 0.096667
v -4.189954 1.587958 -0.226562
v -4.189954 1.631292 -0.213416
v -4.189954 1.671229 -0.192070
v -4.189954 1.706234 -0.163342
v -4.189954 1.734962 -0.128337
v -4.189954 1.756308 -0.088400
v -4.189954 1.756308 0.088400
v -4.189954 1.734962 0.128336
v -4.189954 1.706234 0.163341
v -4.189954 1.671229 0.192069
v -4.189954 1.631292 0.213416
v -4.189954 1.587958 0.226561
v -4.189954 1.542892 0.231000
v -4.189954 1.497826 0.226561
v -4.189954 1.454492 0.213416
v -4.189954 1.414555 0.192069
v -4.189954 1.379550 0.163341
v -4.189954 1.350823 0.128336
v -4.189954 1.329476 0.088399
v -4.189954 1.316331 0.045065
v -4.189954 1.311892 -0.000001
v -4.189954 1.316331 -0.045066
v -4.189954 1.329476 -0.088400
v -4.189954 1.350823 -0.128337
v -4.189954 1.379551 -0.163342
v -4.189954 1.414556 -0.192070
v -4.189954 1.454493 -0.213417
v -4.189954 1.497827 -0.226562
v -4.189954 1.542892 -0.231000
v 2.470000 -0.324109 0.100000
v 1.200000 -0.224109 0.100000
v 1.020000 -0.224109 0.100000
v 1.199999 -0.324109 0.100000
v 1.279999 -0.444109 0.100000
v 1.399999 -0.554109 0.100000
v 1.700000 -0.624109 0.100000
v 2.100000 -0.624109 0.100000
v 1.049999 -0.324109 0.100000
v 1.149999 -0.474109 0.100000
v 1.700000 -0.724109 0.100000
v 1.299999 -0.624109 0.100000
v 2.100000 -0.724109 0.100000
v 2.240000 -0.624109 0.100000
v 2.470000 -0.324109 -0.100000
v 1.020000 -0.224109 -0.100000
v 1.200000 -0.224109 -0.100000
v 1.200000 -0.324109 -0.100000
v 1.280000 -0.444109 -0.100000
v 1.400000 -0.554109 -0.100000
v 1.700000 -0.624109 -0.100000
v 2.100000 -0.624109 -0.100000
v 1.050000 -0.324109 -0.100000
v 1.150000 -0.474109 -0.100000
v 1.300000 -0.624109 -0.100000
v 1.700000 -0.724109 -0.100000
v 2.100000 -0.724109 -0.100000
v 2.240000 -0.624109 -0.100000
v 3.396412 -0.714991 -0.400000
v 3.074588 -0.249521 0.400000
v 3.074588 -0.249521 -0.400000
v 3.555529 -1.669550 0.387294
v 3.555529 -1.669550 -0.387294
v 3.549176 -2.024109 -0.387294
v 3.868803 0.139566 0.300000
v 3.507324 -1.014991 0.400000
v 3.507324 -1.014991 -0.400000
v 4.390244 -2.024109 -0.502439
v 4.055488 -0.752158 0.500000
v 3.495122 0.171013 -0.500000
v 3.495122 0.171013 0.500000
v 3.918293 -0.452158 -0.500000
v 4.192682 -1.052158 0.500000
v 4.192683 -1.052158 -0.500000
v 3.918292 -0.452158 0.500000
v 4.291463 -1.538134 0.451219
v 4.291463 -1.538134 -0.451219
v 4.390244 -2.024109 0.502439
v 4.055488 -0.752158 -0.500000
v 3.868803 0.139566 -0.300000
v 3.001282 -0.559152 -0.300000
v 3.001282 -0.559152 0.300000
v 3.418162 -0.209793 -0.500000
v 3.418162 -0.209793 0.500000
v 3.183238 -0.406667 -0.400000
v 3.183238 -0.406667 0.400000
v 3.637987 -0.039374 -0.500000
v 3.637987 -0.039374 0.500000
v 0.201000 1.542892 -0.231000
v -1.295420 1.542892 0.231000
v 0.201000 1.542892 0.231000
v 0.200000 0.800000 -0.130000
v 0.199785 1.300000 0.210000
v 0.197068 1.300000 -0.210000
v 1.397850 1.805891 0.200000
v 1.397627 1.729740 -0.300000
v 1.397627 1.729740 0.300000
v 1.397850 1.805891 -0.200000
v 1.715883 1.805891 0.200000
v 1.715706 1.729740 -0.300000
v 1.715706 1.729740 0.300000
v 1.715883 1.805891 -0.200000
v 2.033916 1.805891 -0.000000
v 0.761785 1.805891 -0.000000
v 1.397850 1.805891 -0.000000
v 1.715883 1.805891 -0.000000
v 2.400000 1.875891 -0.096667
s 0
f 224 28 29
f 231 37 232
f 225 29 30
f 232 38 233
f 226 30 31
f 233 39 234
f 227 31 32
f 220 219 25
f 100 234 39
f 227 33 228
f 221 25 26
f 228 34 229
f 222 26 27
f 229 35 230
f 223 27 28
f 230 36 231
f 28 42 43
f 36 50 51
f 28 44 29
f 36 52 37
f 29 45 30
f 38 52 53
f 31 45 46
f 38 54 39
f 32 46 47
f 25 219 40
f 100 39 54
f 33 47 48
f 25 41 26
f 34 48 49
f 27 41 42
f 34 50 35
f 46 62 47
f 40 219 55
f 100 54 69
f 47 63 48
f 41 55 56
f 49 63 64
f 42 56 57
f 50 64 65
f 43 57 58
f 50 66 51
f 44 58 59
f 52 66 67
f 45 59 60
f 52 68 53
f 46 60 61
f 54 68 69
f 65 81 66
f 59 73 74
f 67 81 82
f 59 75 60
f 67 83 68
f 61 75 76
f 69 83 84
f 62 76 77
f 55 219 70
f 100 69 84
f 63 77 78
f 55 71 56
f 64 78 79
f 56 72 57
f 64 80 65
f 58 72 73
f 70 219 85
f 100 84 99
f 77 93 78
f 70 86 71
f 78 94 79
f 71 87 72
f 80 94 95
f 73 87 88
f 80 96 81
f 73 89 74
f 82 96 97
f 74 90 75
f 83 97 98
f 76 90 91
f 84 98 99
f 77 91 92
f 97 111 112
f 90 104 105
f 98 112 113
f 90 106 91
f 98 114 99
f 91 107 92
f 85 219 101
f 100 99 114
f 93 107 108
f 86 101 102
f 93 109 94
f 86 103 87
f 94 110 95
f 95 111 96
f 116 131 117
f 124 138 139
f 124 140 125
f 126 140 141
f 118 134 119
f 126 142 127
f 119 135 120
f 127 143 128
f 121 135 136
f 115 219 129
f 100 128 143
f 121 137 122
f 116 129 130
f 122 138 123
f 134 150 135
f 142 158 143
f 136 150 151
f 129 219 144
f 100 143 158
f 136 152 137
f 129 145 130
f 138 152 153
f 131 145 146
f 139 153 154
f 131 147 132
f 139 155 140
f 132 148 133
f 141 155 156
f 133 149 134
f 142 156 157
f 153 169 154
f 146 162 147
f 155 169 170
f 147 163 148
f 156 170 171
f 148 164 149
f 157 171 172
f 150 164 165
f 158 172 173
f 151 165 166
f 144 219 159
f 100 158 173
f 152 166 167
f 144 160 145
f 152 168 153
f 145 161 146
f 173 187 188
f 166 180 181
f 159 219 174
f 100 173 188
f 166 182 167
f 160 174 175
f 167 183 168
f 161 175 176
f 168 184 169
f 161 177 162
f 169 185 170
f 163 177 178
f 170 186 171
f 164 178 179
f 172 186 187
f 164 180 165
f 176 192 177
f 184 200 185
f 178 192 193
f 186 200 201
f 178 194 179
f 187 201 202
f 180 194 195
f 188 202 203
f 180 196 181
f 174 219 189
f 100 188 203
f 181 197 182
f 175 189 190
f 182 198 183
f 175 191 176
f 184 198 199
f 196 210 211
f 189 219 204
f 100 203 218
f 197 211 212
f 189 205 190
f 197 213 198
f 191 205 206
f 199 213 214
f 192 206 207
f 199 215 200
f 193 207 208
f 200 216 201
f 193 209 194
f 201 217 202
f 195 209 210
f 202 218 203
f 236 237 235
f 238 239 237
f 240 241 239
f 242 243 241
f 244 245 243
f 246 247 245
f 248 249 247
f 250 251 249
f 252 253 251
f 254 255 253
f 256 257 255
f 258 259 257
f 260 261 259
f 262 263 261
f 264 265 263
f 266 267 265
f 268 269 267
f 270 271 269
f 272 273 271
f 274 275 273
f 276 277 275
f 278 279 277
f 280 281 279
f 282 283 281
f 284 285 283
f 286 287 285
f 288 289 287
f 290 291 289
f 292 293 291
f 294 295 293
f 240 288 272
f 296 297 295
f 298 235 297
f 265 281 297
f 299 302 301
f 304 299 301
f 304 305 303
f 306 307 305
f 308 309 307
f 310 311 309
f 300 314 302
f 313 316 314
f 315 318 316
f 317 320 318
f 320 321 322
f 321 324 322
f 323 326 324
f 325 328 326
f 328 329 330
f 329 332 330
f 331 334 332
f 333 336 334
f 335 312 336
f 325 321 327
f 331 321 319
f 333 319 317
f 333 315 313
f 333 313 335
f 311 313 300
f 299 309 300
f 311 300 309
f 305 299 303
f 301 306 304
f 310 301 302
f 310 302 312
f 328 330 322
f 322 332 320
f 320 334 318
f 316 334 314
f 334 336 314
f 314 312 302
f 348 349 347
f 346 347 345
f 344 341 343
f 340 345 338
f 343 337 339
f 340 342 344
f 350 351 349
f 351 354 353
f 353 356 355
f 356 357 355
f 358 359 357
f 360 337 359
f 341 359 337
f 357 341 342
f 338 357 342
f 338 345 355
f 349 345 347
f 353 345 351
f 346 350 348
f 346 354 352
f 358 340 344
f 346 340 356
f 339 360 343
f 343 358 344
f 372 373 371
f 368 371 366
f 738 745 752
f 374 375 373
f 376 694 695
f 698 695 700
f 380 696 806
f 382 699 696
f 699 386 802
f 803 388 501
f 392 393 391
f 394 395 393
f 396 397 395
f 398 399 397
f 635 657 649
f 402 403 401
f 404 405 403
f 406 407 405
f 408 409 407
f 410 411 409
f 412 413 411
f 420 421 419
f 444 422 441
f 383 421 419
f 383 419 377
f 381 377 379
f 410 424 364
f 363 410 364
f 414 412 369
f 363 369 412
f 367 372 368
f 416 372 367
f 416 418 374
f 376 374 418
f 418 420 376
f 376 420 378
f 420 384 378
f 384 380 378
f 386 384 422
f 417 375 419
f 373 375 417
f 375 377 419
f 366 371 365
f 371 415 365
f 417 415 373
f 365 415 362
f 646 361 759
f 409 361 362
f 413 370 411
f 370 361 411
f 409 423 407
f 796 426 795
f 440 427 431
f 430 425 429
f 797 803 804
f 798 421 385
f 795 388 797
f 428 429 427
f 445 426 390
f 430 390 426
f 392 390 430
f 430 394 392
f 393 429 391
f 389 391 429
f 425 389 429
f 477 425 387
f 428 396 394
f 395 427 393
f 423 436 435
f 436 434 435
f 400 732 399
f 438 432 433
f 439 431 432
f 431 397 399
f 432 399 401
f 403 432 401
f 405 433 403
f 407 434 405
f 423 435 407
f 398 440 400
f 400 439 402
f 439 404 402
f 438 406 404
f 437 408 406
f 424 408 436
f 416 363 364
f 443 441 442
f 423 442 424
f 417 443 415
f 444 419 421
f 441 420 418
f 442 418 416
f 443 362 415
f 446 575 574
f 448 576 575
f 450 577 576
f 452 578 577
f 454 579 578
f 456 580 579
f 458 581 580
f 460 582 581
f 462 583 582
f 583 466 584
f 466 585 584
f 468 586 585
f 470 587 586
f 472 588 587
f 474 589 588
f 476 590 589
f 478 591 590
f 479 592 591
f 480 593 592
f 481 594 593
f 482 595 594
f 483 596 595
f 596 485 597
f 485 598 597
f 486 599 598
f 487 600 599
f 488 601 600
f 489 602 601
f 490 603 602
f 491 604 603
f 460 516 517
f 492 605 604
f 493 574 605
f 790 508 475
f 451 495 449
f 467 505 504
f 459 501 500
f 453 496 451
f 469 506 505
f 463 501 461
f 455 497 453
f 473 506 471
f 788 494 445
f 465 502 463
f 457 498 455
f 475 507 473
f 447 495 494
f 465 504 503
f 459 499 457
f 476 526 478
f 486 535 487
f 450 513 452
f 468 522 470
f 483 530 531
f 492 539 540
f 460 518 462
f 478 527 479
f 488 535 536
f 454 513 514
f 470 523 472
f 483 532 484
f 492 541 493
f 464 518 519
f 479 528 480
f 489 536 537
f 456 514 515
f 472 524 474
f 484 533 485
f 448 511 510
f 446 541 511
f 464 520 466
f 480 529 481
f 490 537 538
f 456 516 458
f 474 525 476
f 486 533 534
f 450 510 512
f 468 520 521
f 481 530 482
f 490 539 491
f 524 520 512
f 573 693 692
f 691 573 692
f 690 572 691
f 689 571 690
f 688 570 689
f 568 688 687
f 567 687 686
f 685 567 686
f 684 566 685
f 683 565 684
f 563 683 682
f 562 682 681
f 561 681 680
f 560 680 679
f 559 679 678
f 558 678 789
f 557 789 676
f 556 676 675
f 555 675 674
f 554 674 673
f 553 673 672
f 552 672 671
f 551 671 670
f 550 670 669
f 549 669 668
f 548 668 667
f 547 667 666
f 546 666 665
f 545 665 664
f 663 545 664
f 543 663 662
f 542 662 693
f 605 729 728
f 727 605 728
f 603 727 726
f 602 726 725
f 724 602 725
f 600 724 723
f 599 723 722
f 598 722 721
f 597 721 720
f 596 720 719
f 595 719 718
f 594 718 717
f 593 717 716
f 592 716 715
f 591 715 714
f 590 714 713
f 589 713 712
f 588 712 711
f 587 711 710
f 586 710 709
f 585 709 708
f 584 708 707
f 579 706 705
f 578 705 704
f 577 704 703
f 702 577 703
f 575 702 701
f 729 575 701
f 582 615 581
f 550 612 551
f 582 613 614
f 551 609 552
f 550 611 610
f 581 606 580
f 583 607 613
f 549 608 611
f 548 706 608
f 615 608 606
f 615 610 611
f 613 610 614
f 609 613 607
f 366 617 368
f 779 618 619
f 640 621 642
f 641 623 643
f 652 625 763
f 637 627 639
f 636 629 638
f 781 631 780
f 630 633 631
f 369 632 370
f 761 624 652
f 636 635 765
f 785 628 650
f 773 642 621
f 630 361 632
f 370 632 361
f 365 361 646
f 762 627 648
f 766 629 758
f 784 631 760
f 364 442 416
f 633 369 363
f 616 366 770
f 653 768 774
f 778 634 771
f 777 656 767
f 654 763 656
f 775 654 777
f 768 649 772
f 787 653 774
f 759 361 630
f 776 651 773
f 656 762 655
f 650 645 653
f 651 766 647
f 620 643 621
f 624 639 625
f 626 761 635
f 625 762 763
f 786 644 769
f 739 752 753
f 414 737 413
f 750 737 751
f 743 744 730
f 414 369 744
f 749 736 750
f 757 742 756
f 761 654 657
f 649 775 772
f 765 649 645
f 370 413 730
f 785 653 783
f 656 776 767
f 644 367 769
f 618 642 619
f 392 509 791
f 389 509 391
f 659 793 791
f 660 659 661
f 693 447 788
f 662 449 447
f 663 451 449
f 664 453 451
f 665 455 453
f 666 457 455
f 667 459 457
f 668 461 459
f 669 463 461
f 670 465 463
f 671 467 465
f 672 469 467
f 673 471 469
f 674 473 471
f 675 475 473
f 475 789 790
f 677 658 660
f 793 693 788
f 792 677 660
f 698 383 381
f 378 806 694
f 697 381 379
f 695 379 377
f 694 700 695
f 707 607 584
f 606 706 580
f 608 706 606
f 609 707 552
f 729 543 542
f 701 544 543
f 702 545 544
f 703 546 545
f 704 547 546
f 705 548 547
f 707 553 552
f 708 554 553
f 709 555 554
f 710 556 555
f 711 557 556
f 712 558 557
f 713 559 558
f 714 560 559
f 715 561 560
f 716 562 561
f 717 563 562
f 718 564 563
f 719 565 564
f 565 721 566
f 721 567 566
f 567 723 568
f 723 569 568
f 724 570 569
f 725 571 570
f 726 572 571
f 727 573 572
f 728 542 573
f 607 707 609
f 399 731 401
f 738 731 732
f 733 739 734
f 734 741 735
f 735 740 736
f 736 742 737
f 743 737 742
f 413 737 743
f 730 413 743
f 655 648 651
f 626 638 627
f 647 758 634
f 628 765 650
f 648 638 766
f 782 760 644
f 651 778 773
f 400 746 745
f 414 744 757
f 751 414 757
f 756 751 757
f 756 750 751
f 755 749 750
f 754 748 749
f 753 747 748
f 746 752 745
f 742 755 756
f 740 754 755
f 735 748 734
f 734 747 733
f 741 753 754
f 733 746 731
f 731 402 401
f 363 644 760
f 362 361 365
f 760 631 363
f 363 631 633
f 769 367 368
f 767 643 623
f 772 641 620
f 779 769 617
f 643 773 621
f 764 774 618
f 640 772 620
f 641 777 622
f 622 767 623
f 778 619 642
f 618 768 640
f 367 644 363
f 770 764 616
f 617 769 368
f 770 366 365
f 365 646 770
f 771 779 619
f 634 784 782
f 759 783 646
f 634 786 771
f 646 787 770
f 629 784 758
f 630 785 759
f 628 780 629
f 617 764 779
f 434 438 433
f 791 661 659
f 792 661 509
f 790 389 477
f 788 390 793
f 791 390 392
f 799 797 801
f 421 383 385
f 387 796 794
f 805 797 804
f 800 795 799
f 421 799 422
f 802 801 805
f 422 801 386
f 794 800 798
f 422 384 420
f 385 805 798
f 798 804 794
f 804 387 794
f 387 803 501
f 445 494 388
f 494 495 388
f 495 496 388
f 496 497 388
f 497 498 388
f 387 503 504
f 387 504 505
f 387 505 506
f 387 506 507
f 387 507 508
f 387 508 477
f 387 502 503
f 498 499 388
f 499 500 388
f 501 388 500
f 502 387 501
f 694 696 699
f 224 223 28
f 231 36 37
f 225 224 29
f 232 37 38
f 226 225 30
f 233 38 39
f 227 226 31
f 227 32 33
f 221 220 25
f 228 33 34
f 222 221 26
f 229 34 35
f 223 222 27
f 230 35 36
f 28 27 42
f 36 35 50
f 28 43 44
f 36 51 52
f 29 44 45
f 38 37 52
f 31 30 45
f 38 53 54
f 32 31 46
f 33 32 47
f 25 40 41
f 34 33 48
f 27 26 41
f 34 49 50
f 46 61 62
f 47 62 63
f 41 40 55
f 49 48 63
f 42 41 56
f 50 49 64
f 43 42 57
f 50 65 66
f 44 43 58
f 52 51 66
f 45 44 59
f 52 67 68
f 46 45 60
f 54 53 68
f 65 80 81
f 59 58 73
f 67 66 81
f 59 74 75
f 67 82 83
f 61 60 75
f 69 68 83
f 62 61 76
f 63 62 77
f 55 70 71
f 64 63 78
f 56 71 72
f 64 79 80
f 58 57 72
f 77 92 93
f 70 85 86
f 78 93 94
f 71 86 87
f 80 79 94
f 73 72 87
f 80 95 96
f 73 88 89
f 82 81 96
f 74 89 90
f 83 82 97
f 76 75 90
f 84 83 98
f 77 76 91
f 97 96 111
f 90 89 104
f 98 97 112
f 90 105 106
f 98 113 114
f 91 106 107
f 93 92 107
f 86 85 101
f 93 108 109
f 86 102 103
f 94 109 110
f 95 110 111
f 116 130 131
f 124 123 138
f 124 139 140
f 126 125 140
f 118 133 134
f 126 141 142
f 119 134 135
f 127 142 143
f 121 120 135
f 121 136 137
f 116 115 129
f 122 137 138
f 134 149 150
f 142 157 158
f 136 135 150
f 136 151 152
f 129 144 145
f 138 137 152
f 131 130 145
f 139 138 153
f 131 146 147
f 139 154 155
f 132 147 148
f 141 140 155
f 133 148 149
f 142 141 156
f 153 168 169
f 146 161 162
f 155 154 169
f 147 162 163
f 156 155 170
f 148 163 164
f 157 156 171
f 150 149 164
f 158 157 172
f 151 150 165
f 152 151 166
f 144 159 160
f 152 167 168
f 145 160 161
f 173 172 187
f 166 165 180
f 166 181 182
f 160 159 174
f 167 182 183
f 161 160 175
f 168 183 184
f 161 176 177
f 169 184 185
f 163 162 177
f 170 185 186
f 164 163 178
f 172 171 186
f 164 179 180
f 176 191 192
f 184 199 200
f 178 177 192
f 186 185 200
f 178 193 194
f 187 186 201
f 180 179 194
f 188 187 202
f 180 195 196
f 181 196 197
f 175 174 189
f 182 197 198
f 175 190 191
f 184 183 198
f 196 195 210
f 197 196 211
f 189 204 205
f 197 212 213
f 191 190 205
f 199 198 213
f 192 191 206
f 199 214 215
f 193 192 207
f 200 215 216
f 193 208 209
f 201 216 217
f 195 194 209
f 202 217 218
f 236 238 237
f 238 240 239
f 240 242 241
f 242 244 243
f 244 246 245
f 246 248 247
f 248 250 249
f 250 252 251
f 252 254 253
f 254 256 255
f 256 258 257
f 258 260 259
f 260 262 261
f 262 264 263
f 264 266 265
f 266 268 267
f 268 270 269
f 270 272 271
f 272 274 273
f 274 276 275
f 276 278 277
f 278 280 279
f 280 282 281
f 282 284 283
f 284 286 285
f 286 288 287
f 288 290 289
f 290 292 291
f 292 294 293
f 294 296 295
f 240 238 236
f 236 298 240
f 298 296 240
f 296 294 288
f 294 292 288
f 292 290 288
f 288 286 284
f 284 282 280
f 280 278 272
f 278 276 272
f 276 274 272
f 272 270 268
f 268 266 264
f 264 262 260
f 260 258 256
f 256 254 252
f 252 250 256
f 250 248 256
f 248 246 244
f 244 242 240
f 288 284 272
f 284 280 272
f 272 268 256
f 268 264 256
f 264 260 256
f 248 244 240
f 240 296 288
f 256 248 272
f 248 240 272
f 296 298 297
f 298 236 235
f 297 235 237
f 237 239 297
f 239 241 297
f 241 243 249
f 243 245 249
f 245 247 249
f 249 251 253
f 253 255 249
f 255 257 249
f 257 259 265
f 259 261 265
f 261 263 265
f 265 267 269
f 269 271 265
f 271 273 265
f 273 275 277
f 277 279 281
f 281 283 289
f 283 285 289
f 285 287 289
f 289 291 293
f 293 295 297
f 273 277 265
f 277 281 265
f 289 293 297
f 297 241 249
f 249 257 265
f 281 289 297
f 297 249 265
f 299 300 302
f 304 303 299
f 304 306 305
f 306 308 307
f 308 310 309
f 310 312 311
f 300 313 314
f 313 315 316
f 315 317 318
f 317 319 320
f 320 319 321
f 321 323 324
f 323 325 326
f 325 327 328
f 328 327 329
f 329 331 332
f 331 333 334
f 333 335 336
f 335 311 312
f 323 321 325
f 321 329 327
f 331 329 321
f 333 331 319
f 333 317 315
f 311 335 313
f 299 307 309
f 305 307 299
f 301 308 306
f 310 308 301
f 322 324 326
f 326 328 322
f 322 330 332
f 320 332 334
f 316 318 334
f 314 336 312
f 348 350 349
f 346 348 347
f 344 342 341
f 340 346 345
f 343 341 337
f 340 338 342
f 350 352 351
f 351 352 354
f 353 354 356
f 356 358 357
f 358 360 359
f 360 339 337
f 357 359 341
f 338 355 357
f 349 351 345
f 353 355 345
f 346 352 350
f 346 356 354
f 358 356 340
f 343 360 358
f 372 374 373
f 368 372 371
f 738 732 745
f 374 376 375
f 377 375 695
f 375 376 695
f 376 378 694
f 698 697 695
f 380 382 696
f 382 384 699
f 385 383 700
f 699 384 386
f 385 700 802
f 700 699 802
f 392 394 393
f 394 396 395
f 396 398 397
f 398 400 399
f 635 761 657
f 402 404 403
f 404 406 405
f 406 408 407
f 408 410 409
f 410 412 411
f 412 414 413
f 420 422 421
f 444 421 422
f 381 383 377
f 410 408 424
f 363 412 410
f 416 374 372
f 384 382 380
f 371 373 415
f 409 411 361
f 409 362 423
f 796 425 426
f 440 428 427
f 430 426 425
f 797 388 803
f 798 800 421
f 795 426 388
f 428 430 429
f 445 388 426
f 430 428 394
f 393 427 429
f 477 389 425
f 428 398 396
f 395 397 427
f 423 424 436
f 436 437 434
f 400 745 732
f 438 439 432
f 439 440 431
f 431 427 397
f 432 431 399
f 403 433 432
f 405 434 433
f 407 435 434
f 398 428 440
f 400 440 439
f 439 438 404
f 438 437 406
f 437 436 408
f 416 367 363
f 443 444 441
f 423 443 442
f 417 444 443
f 444 417 419
f 441 422 420
f 442 441 418
f 443 423 362
f 446 448 575
f 448 450 576
f 450 452 577
f 452 454 578
f 454 456 579
f 456 458 580
f 458 460 581
f 460 462 582
f 462 464 583
f 583 464 466
f 466 468 585
f 468 470 586
f 470 472 587
f 472 474 588
f 474 476 589
f 476 478 590
f 478 479 591
f 479 480 592
f 480 481 593
f 481 482 594
f 482 483 595
f 483 484 596
f 596 484 485
f 485 486 598
f 486 487 599
f 487 488 600
f 488 489 601
f 489 490 602
f 490 491 603
f 491 492 604
f 460 458 516
f 492 493 605
f 493 446 574
f 790 477 508
f 451 496 495
f 467 469 505
f 459 461 501
f 453 497 496
f 469 471 506
f 463 502 501
f 455 498 497
f 473 507 506
f 788 447 494
f 465 503 502
f 457 499 498
f 475 508 507
f 447 449 495
f 465 467 504
f 459 500 499
f 476 525 526
f 486 534 535
f 450 512 513
f 468 521 522
f 483 482 530
f 492 491 539
f 460 517 518
f 478 526 527
f 488 487 535
f 454 452 513
f 470 522 523
f 483 531 532
f 492 540 541
f 464 462 518
f 479 527 528
f 489 488 536
f 456 454 514
f 472 523 524
f 484 532 533
f 448 446 511
f 446 493 541
f 464 519 520
f 480 528 529
f 490 489 537
f 456 515 516
f 474 524 525
f 486 485 533
f 450 448 510
f 468 466 520
f 481 529 530
f 490 538 539
f 512 510 540
f 510 511 540
f 511 541 540
f 540 539 538
f 538 537 540
f 537 536 540
f 536 535 534
f 534 533 536
f 533 532 536
f 532 531 528
f 531 530 528
f 530 529 528
f 528 527 526
f 526 525 528
f 525 524 528
f 524 523 522
f 522 521 524
f 521 520 524
f 520 519 516
f 519 518 516
f 518 517 516
f 516 515 514
f 514 513 512
f 516 514 520
f 514 512 520
f 512 540 528
f 540 536 528
f 536 532 528
f 528 524 512
f 573 542 693
f 691 572 573
f 690 571 572
f 689 570 571
f 688 569 570
f 568 569 688
f 567 568 687
f 685 566 567
f 684 565 566
f 683 564 565
f 563 564 683
f 562 563 682
f 561 562 681
f 560 561 680
f 559 560 679
f 558 559 678
f 557 558 789
f 556 557 676
f 555 556 675
f 554 555 674
f 553 554 673
f 552 553 672
f 551 552 671
f 550 551 670
f 549 550 669
f 548 549 668
f 547 548 667
f 546 547 666
f 545 546 665
f 663 544 545
f 543 544 663
f 542 543 662
f 605 574 729
f 727 604 605
f 603 604 727
f 602 603 726
f 724 601 602
f 600 601 724
f 599 600 723
f 598 599 722
f 597 598 721
f 596 597 720
f 595 596 719
f 594 595 718
f 593 594 717
f 592 593 716
f 591 592 715
f 590 591 714
f 589 590 713
f 588 589 712
f 587 588 711
f 586 587 710
f 585 586 709
f 584 585 708
f 579 580 706
f 578 579 705
f 577 578 704
f 702 576 577
f 575 576 702
f 729 574 575
f 582 614 615
f 550 610 612
f 582 583 613
f 551 612 609
f 550 549 611
f 581 615 606
f 583 584 607
f 549 548 608
f 615 611 608
f 615 614 610
f 613 612 610
f 609 612 613
f 366 616 617
f 779 764 618
f 640 620 621
f 641 622 623
f 652 624 625
f 637 626 627
f 636 628 629
f 781 630 631
f 630 632 633
f 369 633 632
f 761 637 624
f 636 626 635
f 785 781 628
f 773 778 642
f 762 639 627
f 766 638 629
f 784 780 631
f 364 424 442
f 653 645 768
f 778 647 634
f 777 654 656
f 654 652 763
f 775 657 654
f 768 645 649
f 787 783 653
f 776 655 651
f 656 763 762
f 650 765 645
f 651 648 766
f 620 641 643
f 624 637 639
f 626 637 761
f 625 639 762
f 786 782 644
f 739 738 752
f 414 751 737
f 750 736 737
f 743 757 744
f 749 735 736
f 757 743 742
f 761 652 654
f 649 657 775
f 765 635 649
f 785 650 653
f 656 655 776
f 618 640 642
f 392 391 509
f 389 792 509
f 659 658 793
f 660 658 659
f 693 662 447
f 662 663 449
f 663 664 451
f 664 665 453
f 665 666 455
f 666 667 457
f 667 668 459
f 668 669 461
f 669 670 463
f 670 671 465
f 671 672 467
f 672 673 469
f 673 674 471
f 674 675 473
f 675 676 475
f 475 676 789
f 677 693 658
f 793 658 693
f 792 790 677
f 698 700 383
f 378 380 806
f 697 698 381
f 695 697 379
f 694 699 700
f 729 701 543
f 701 702 544
f 702 703 545
f 703 704 546
f 704 705 547
f 705 706 548
f 707 708 553
f 708 709 554
f 709 710 555
f 710 711 556
f 711 712 557
f 712 713 558
f 713 714 559
f 714 715 560
f 715 716 561
f 716 717 562
f 717 718 563
f 718 719 564
f 719 720 565
f 565 720 721
f 721 722 567
f 567 722 723
f 723 724 569
f 724 725 570
f 725 726 571
f 726 727 572
f 727 728 573
f 728 729 542
f 399 732 731
f 738 733 731
f 733 738 739
f 734 739 741
f 735 741 740
f 736 740 742
f 655 762 648
f 626 636 638
f 647 766 758
f 628 636 765
f 648 627 638
f 782 784 760
f 651 647 778
f 400 402 746
f 756 755 750
f 755 754 749
f 754 753 748
f 753 752 747
f 746 747 752
f 742 740 755
f 740 741 754
f 735 749 748
f 734 748 747
f 741 739 753
f 733 747 746
f 731 746 402
f 767 776 643
f 772 775 641
f 779 786 769
f 643 776 773
f 764 787 774
f 640 768 772
f 641 775 777
f 622 777 767
f 778 771 619
f 618 774 768
f 770 787 764
f 771 786 779
f 634 758 784
f 759 785 783
f 634 782 786
f 646 783 787
f 629 780 784
f 630 781 785
f 628 781 780
f 617 616 764
f 434 437 438
f 791 509 661
f 792 660 661
f 790 792 389
f 788 445 390
f 791 793 390
f 799 795 797
f 387 425 796
f 805 801 797
f 800 796 795
f 421 800 799
f 802 386 801
f 422 799 801
f 794 796 800
f 385 802 805
f 798 805 804
f 804 803 387
f 694 806 696
l 365 367
